<svg xmlns="http://www.w3.org/2000/svg" width="1400" height="900" viewBox="0 0 1400 900" shape-rendering="crispEdges">
  <defs>
    <linearGradient id="bg" x1="0" y1="0" x2="0" y2="1">
      <stop offset="0%" stop-color="#0d1422" />
      <stop offset="100%" stop-color="#171b2f" />
    </linearGradient>
  </defs>

  <rect width="1400" height="900" fill="url(#bg)" />

  <rect x="300" y="520" width="800" height="190" fill="#4e72a7" />
  <rect x="300" y="710" width="800" height="80" fill="#2f4b73" />
  <rect x="300" y="790" width="800" height="50" fill="#5f4a75" />

  <rect x="430" y="500" width="70" height="20" fill="#6f7eb8" />
  <rect x="430" y="440" width="70" height="60" fill="#4f5378" />
  <rect x="430" y="420" width="70" height="20" fill="#64688f" />

  <rect x="915" y="500" width="70" height="20" fill="#6f7eb8" />
  <rect x="915" y="440" width="70" height="60" fill="#4f5378" />
  <rect x="915" y="420" width="70" height="20" fill="#64688f" />

  <rect x="700" y="500" width="80" height="20" fill="#7a82b6" />
  <rect x="700" y="410" width="80" height="90" fill="#5b607f" />
  <rect x="700" y="390" width="80" height="20" fill="#70759a" />

  <rect x="565" y="500" width="24" height="90" fill="#1a2237" />
  <rect x="596" y="500" width="24" height="90" fill="#1a2237" />
  <rect x="560" y="458" width="66" height="48" fill="#2d3a54" />
  <rect x="572" y="432" width="42" height="28" fill="#f1c090" />
  <rect x="568" y="420" width="50" height="14" fill="#0f1422" />

  <rect x="770" y="500" width="24" height="90" fill="#0e1018" />
  <rect x="801" y="500" width="24" height="90" fill="#0e1018" />
  <rect x="765" y="458" width="66" height="48" fill="#0b1220" />
  <rect x="777" y="432" width="42" height="28" fill="#efc49b" />
  <rect x="770" y="420" width="56" height="16" fill="#111827" />

  <rect x="626" y="472" width="18" height="8" fill="#ff8a3d" />
  <rect x="626" y="480" width="18" height="26" fill="#facc15" />

  <rect x="360" y="568" width="30" height="6" fill="#7ec7e4" />
  <rect x="1020" y="560" width="26" height="6" fill="#7ec7e4" />
  <rect x="868" y="610" width="22" height="6" fill="#7ec7e4" />

  <rect x="236" y="240" width="10" height="10" fill="#8392ad" />
  <rect x="1170" y="190" width="10" height="10" fill="#8392ad" />
  <rect x="1090" y="280" width="10" height="10" fill="#8392ad" />
  <rect x="285" y="305" width="8" height="8" fill="#8392ad" />

  <path d="M214 372q36 0 36 36v26q0 30-30 30" stroke="#8d90ac" stroke-width="4" fill="none" />
  <path d="M1162 324q34 0 34 34v28q0 28-30 28" stroke="#8d90ac" stroke-width="4" fill="none" />
</svg>
